<?xml version="1.0" standalone="no"?><!DOCTYPE svg PUBLIC "-//W3C//DTD SVG 1.1//EN" "http://www.w3.org/Graphics/SVG/1.1/DTD/svg11.dtd"><svg t="1545390350387" class="icon" style="" viewBox="0 0 1024 1024" version="1.1" xmlns="http://www.w3.org/2000/svg" xmlns:xlink="http://www.w3.org/1999/xlink" width="200" height="200"><defs><style type="text/css"></style></defs><path d="M170.666667 904.533333v34.133334H85.333333a17.066667 17.066667 0 0 1-17.066666-17.066667V733.866667a17.066667 17.066667 0 1 1 34.133333 0v170.666666h68.266667z m682.666666 34.133334v-34.133334h68.266667V733.866667a17.066667 17.066667 0 1 1 34.133333 0v187.733333a17.066667 17.066667 0 0 1-17.066666 17.066667h-85.333334z m-659.9168-102.4C216.576 733.4912 308.104533 651.1104 426.666667 623.957333v-62.2592c-70.5024-32.3584-119.466667-103.5776-119.466667-186.231466 0-113.1008 91.6992-204.8 204.8-204.8s204.8 91.6992 204.8 204.8c0 82.653867-48.964267 153.873067-119.466667 186.231466v62.2592C715.895467 651.093333 807.424 733.4912 830.583467 836.266667H193.416533zM68.266667 256V68.266667a17.066667 17.066667 0 0 1 17.066666-17.066667h187.733334a17.066667 17.066667 0 1 1 0 34.133333H102.4v170.666667a17.066667 17.066667 0 1 1-34.133333 0z m887.466666 0a17.066667 17.066667 0 1 1-34.133333 0V85.333333H750.933333a17.066667 17.066667 0 1 1 0-34.133333h187.733334a17.066667 17.066667 0 0 1 17.066666 17.066667v187.733333zM170.666667 904.533333h102.4v34.133334h-102.4v-34.133334z m580.266666 34.133334a17.066667 17.066667 0 1 1 0-34.133334h119.466667v34.133334h-119.466667z m-477.866666 0a17.066667 17.066667 0 1 1 0-34.133334 17.066667 17.066667 0 0 1 0 34.133334z" fill="#D8D8D8"></path></svg>
