<?xml version="1.0" standalone="no"?><!DOCTYPE svg PUBLIC "-//W3C//DTD SVG 1.1//EN" "http://www.w3.org/Graphics/SVG/1.1/DTD/svg11.dtd"><svg t="1543490858983" class="icon" style="" viewBox="0 0 1024 1024" version="1.1" xmlns="http://www.w3.org/2000/svg" p-id="9389" xmlns:xlink="http://www.w3.org/1999/xlink" width="200" height="200"><defs><style type="text/css"></style></defs><path d="M625.914446 24.75787c-102.370529 8.02886-148.093896 59.068304-164.590616 102.372575-32.122605 84.305081 30.400381 165.914774 108.392686 168.610162 116.41336 4.01443 144.518464-94.344738 130.467447-142.517901-8.622378-29.553083-19.503193-42.472324-26.627451-48.058552 9.974166 6.046716 12.955056 5.473665 25.286919 23.972994 10.707876 16.059767 12.042267 24.085558 12.042267 24.085558s95.009887 15.389502 123.114992 125.790938c36.872792 144.853086-57.543577 243.545852-57.543577 243.545852s8.030907-98.359168-70.254064-140.510174c-78.287017-42.151006-152.550395-20.071128-218.792075 42.151006-66.234517 62.23339-92.335988 90.325192-140.507104 70.254064-48.169069-20.071128-18.065448-76.268034 12.045337-124.447337 30.110785-48.174186 64.233953-66.239634 64.233953-66.239634s-24.090675-1.001817-39.138392 4.016477c-15.057951 5.016247-22.088064 9.029654-22.088064 9.029654s-20.071128-26.094308-53.187363-47.167253c-33.123398-21.078061-59.217706-26.099425-59.217706-26.099425s26.094308 2.010797 44.161802 7.03523c18.062378 5.010107 17.063631-89.328491 17.063631-89.328491s-178.99672 75.721589-220.802872 258.94047C21.731954 719.272717 447.264627 1000.287949 447.264627 1000.287949s359.969445-231.502561 467.026716-520.550747C1003.801982 238.071164 862.73513 6.186909 625.914446 24.75787zM519.532557 829.66699c-13.047154 56.20714-71.260997 139.505287-71.260997 139.505287s-50.184983-84.302011-60.214407-143.517671c-10.039657-59.214636 30.988782-87.317695 68.24736-87.317695C498.459612 738.337935 532.576641 773.463943 519.532557 829.66699z" p-id="9390" fill="#1890FE"></path></svg>