<?xml version="1.0" standalone="no"?><!DOCTYPE svg PUBLIC "-//W3C//DTD SVG 1.1//EN" "http://www.w3.org/Graphics/SVG/1.1/DTD/svg11.dtd"><svg t="1550810380380" class="icon" style="" viewBox="0 0 1152 1024" version="1.1" xmlns="http://www.w3.org/2000/svg" p-id="843" xmlns:xlink="http://www.w3.org/1999/xlink" width="225" height="200"><defs><style type="text/css"></style></defs><path d="M1092.253463 19.444691c-11.198498-24.996646-43.194205-25.996512-56.592407-2.399678C973.669372 124.830553 862.684262 192.021538 735.901271 192.021538h-159.978537C363.951172 192.021538 191.974245 363.998466 191.974245 575.970028c0 13.998122 1.599785 27.396325 2.999597 40.9945C322.556726 525.576789 506.732017 447.987198 767.896979 447.987198c17.597639 0 31.995707 14.398068 31.995707 31.995707s-14.398068 31.995707-31.995707 31.995708C265.164425 511.978613 51.993025 820.13727 4.799356 935.921737c-13.198229 32.595627 2.399678 69.790637 34.995305 83.188839 32.7956 13.598176 69.99061-2.199705 83.588786-34.595359 2.999598-7.199034 41.794393-95.787149 143.78071-181.175693 64.791308 87.788222 187.974781 171.576981 349.753077 154.379288C930.875114 934.921871 1151.845468 653.359645 1151.845468 308.605897c0-100.386532-21.597103-204.372581-59.592005-289.161206z" fill="#409EFF" p-id="844"></path></svg>